<svg width="100" height="98" viewBox="0 0 100 98" fill="none" xmlns="http://www.w3.org/2000/svg">
<path d="M50.306 1.02284C47.4895 1.02679 44.7899 2.14906 42.8007 4.14292C40.8114 6.13677 39.6954 8.83898 39.698 11.6554C39.7007 14.472 40.8218 17.1722 42.8149 19.1623C44.808 21.1525 47.5098 22.2696 50.3264 22.2682C53.1428 22.2668 55.8434 21.147 57.8345 19.1549C59.8255 17.1629 60.944 14.4617 60.9439 11.6452V11.6249C60.9384 8.80849 59.8147 6.10958 57.8199 4.12148C55.825 2.13338 53.1223 1.01882 50.306 1.02284ZM15.2629 25.5595C13.3961 25.5707 11.4982 25.6741 9.71821 26.1229C8.54542 26.4199 7.40949 26.9086 6.67273 27.669C5.74746 28.6219 5.62866 29.9135 6.07974 31.0166C6.48339 31.9885 7.56829 32.7179 8.77693 33.1348C11.377 34.0255 14.2669 34.2143 17.0011 34.7753C17.5053 34.8987 18.0631 35.0346 18.3754 35.379C18.6993 35.7882 18.507 36.3524 17.9762 36.6096C17.0879 37.061 15.9534 37.0646 14.9194 37.0491C13.9745 37.0102 12.938 36.9307 12.1863 36.4577C11.6334 36.1176 11.5366 35.5387 11.6603 35.0415L5.56509 35.042C5.5489 35.9699 5.72916 36.9382 6.40924 37.7349C6.97713 38.4151 7.89438 38.8942 8.88211 39.1833C10.4585 39.6469 12.1666 39.7866 13.8483 39.8289C16.1302 39.8678 18.4564 39.8 20.6481 39.2821C21.9539 38.9645 23.2379 38.4497 24.0741 37.6142C25.5591 36.1235 25.2096 33.7627 23.2353 32.6035C22.2522 32.0312 21.0748 31.6758 19.8743 31.447C18.1186 31.0828 16.3306 30.8164 14.5518 30.5229C13.9272 30.4012 13.2668 30.2938 12.7417 29.9986C12.1923 29.7034 12.1481 29.0086 12.7079 28.7048C13.4319 28.2965 14.3966 28.2994 15.2629 28.2985C16.1766 28.3141 17.1702 28.3716 17.9219 28.7997C18.3429 29.0354 18.5119 29.431 18.5166 29.8108L24.3097 29.7974C24.2865 29.0628 24.1514 28.2999 23.6147 27.6664C22.9925 26.8861 21.8981 26.3943 20.7715 26.1069C19.0043 25.6597 17.1169 25.5681 15.2629 25.5595ZM27.8306 25.9979L27.8281 39.8397L44.7218 39.8402L44.7203 36.8226H34.0244V34.1356H43.5639V31.1857H34.0244L34.0223 28.9822L44.3345 28.9795L44.3286 25.9979L27.8306 25.9979ZM55.6639 26.0027C55.6639 26.0027 50.444 26.0043 47.8347 26.0043L47.8336 39.8471L53.7646 39.8477L53.7609 30.5325L61.8852 39.8402L70.0251 39.8476L70.0229 26.0043L64.0871 26.0053L64.094 35.2539L55.6639 26.0027ZM80.6008 26.0258C80.6008 26.0258 74.2073 35.2601 70.9943 39.8702L77.2199 39.8708L78.7134 37.3732H88.3328L89.7265 39.8718L96.6418 39.8708L87.478 26.0279L80.6008 26.0258ZM83.7118 29.3299L86.6639 34.3444L80.5616 34.353L83.7118 29.3299ZM0.6875 43.755L0.741161 51.2906L28.8996 51.1902C30.3357 51.4994 31.1695 52.4342 30.8761 54.5593L13.5568 84.8768L19.1986 90.1509L46.0235 43.755L0.6875 43.755ZM54.4199 43.8194L80.7988 90.0183L86.6284 84.778L69.108 54.54C68.8145 52.4083 69.6485 51.4627 71.085 51.1527L99.2493 51.2531L99.2419 43.8425L54.4199 43.8194ZM49.9695 51.4645L25.2322 93.9251L31.8029 97.1273L48.3096 69.2286C48.8783 68.7634 49.4543 68.5155 50.0307 68.4923C50.6378 68.4691 51.2529 68.6937 51.8676 69.1744L68.3363 97.1584L75.1141 93.623L49.9695 51.4645Z" fill="black"/>
</svg>
